<?xml version="1.0" ?><!DOCTYPE svg  PUBLIC '-//W3C//DTD SVG 1.1//EN'  'http://www.w3.org/Graphics/SVG/1.1/DTD/svg11.dtd'><svg height="100%" style="fill-rule:evenodd;clip-rule:evenodd;stroke-linejoin:round;stroke-miterlimit:1.41421;" version="1.1" viewBox="0 0 512 512" width="100%" xml:space="preserve" xmlns="http://www.w3.org/2000/svg" xmlns:serif="http://www.serif.com/" xmlns:xlink="http://www.w3.org/1999/xlink"><rect height="512" id="_20" style="fill:none;" width="512" x="0" y="0"/><path d="M96.382,87.926c0.012,-6.066 0.022,-12.131 0.022,-18.197c0.077,-12.3 10.495,-23.455 23.423,-23.697c6.962,-0.043 13.924,-0.043 20.886,0c12.17,0.228 23.182,10.642 23.421,23.418c0.043,6.159 0.062,12.318 0.068,18.476l183.554,0c0.012,-6.065 0.022,-12.131 0.022,-18.197c0.077,-12.306 10.63,-23.457 23.423,-23.697c6.962,-0.043 13.924,-0.043 20.886,0c12.209,0.229 23.182,10.673 23.421,23.421c0.038,6.152 0.055,12.304 0.06,18.455c3.721,-0.009 7.442,-0.012 11.162,0.021c20.408,0.315 39,18.189 39.054,39.53l0,83.438c0,71.833 0.265,143.666 0,215.498c-0.177,20.407 -17.701,39.077 -39.284,39.29c-113.695,0.42 -227.391,0.42 -341.086,0c-20.425,-0.202 -39.204,-17.719 -39.285,-39.526l0,-215.262l0,-2.615c-0.004,-27.02 -0.068,-54.04 0.001,-81.06c0.211,-20.569 17.955,-39.213 39.526,-39.296l10.726,0Zm351.946,131.699l-384.742,0c0,68.936 -0.593,137.875 0.002,206.808c0.182,11.346 9.958,21.678 21.945,21.796c113.665,0.42 227.338,1.119 340.999,-0.002c11.317,-0.168 21.692,-9.983 21.795,-21.939l0.001,-206.663Zm-32.772,-114.242c-0.017,10.255 -0.046,20.511 -0.046,30.766c-0.075,12.02 -10.267,23.048 -22.513,23.668c-7.198,0.364 -14.348,0.03 -21.52,0.03c-12.309,-0.076 -23.439,-10.657 -23.697,-23.416c-0.064,-10.349 -0.069,-20.699 -0.056,-31.048l-183.536,0c-0.02,10.256 -0.052,20.513 -0.052,30.77c-0.084,11.979 -9.993,23.03 -22.512,23.664c-7.201,0.365 -14.349,0.03 -21.522,0.03c-12.352,-0.076 -23.457,-10.628 -23.696,-23.423c-0.065,-10.421 -0.069,-20.843 -0.056,-31.265c-8.603,-0.278 -16.983,-0.256 -23.376,4.24c-5.771,4.057 -9.37,10.97 -9.388,18.082l0,74.688l384.742,0c0,-24.99 0.255,-49.981 -0.002,-74.97c-0.175,-11.397 -10.087,-21.77 -22.102,-21.816l-10.668,0Zm-295.399,-41.896c-3.277,0.021 -6.233,2.865 -6.295,6.184c-0.138,22.205 -0.414,44.415 0.001,66.617c0.102,3.178 2.88,6 6.101,6.1c6.869,0.134 13.743,0.134 20.612,0c3.188,-0.099 6,-2.885 6.101,-6.097c0.415,-22.231 0.416,-44.473 0,-66.704c-0.1,-3.181 -2.884,-5.994 -6.101,-6.098c-6.805,-0.127 -13.613,-0.002 -20.419,-0.002Zm278.191,32.151c-0.036,-8.682 -0.135,-17.364 -0.297,-26.044c-0.104,-3.182 -2.87,-6.001 -6.101,-6.105c-6.805,-0.127 -13.613,-0.002 -20.419,-0.002c-3.273,0.021 -6.228,2.851 -6.296,6.191c-0.137,22.173 -0.137,44.349 0,66.522c0.066,3.252 2.794,6.124 6.187,6.19c6.842,0.043 13.687,0.132 20.528,-0.002c3.176,-0.099 5.993,-2.81 6.101,-6.104c0.241,-12.885 0.342,-25.774 0.304,-38.662c-0.069,-0.658 -0.072,-1.325 -0.007,-1.984Z"/></svg>